<?xml version="1.0" encoding="UTF-8"?>
<svg id="Capa_1" xmlns="http://www.w3.org/2000/svg" version="1.1" viewBox="0 0 800 800">
  <!-- Generator: Adobe Illustrator 29.8.1, SVG Export Plug-In . SVG Version: 2.1.1 Build 2)  -->
  <defs>
    <style>
      .st0 {
        fill: #fff;
      }

      .st1 {
        fill: #a8bba3;
        fill-rule: evenodd;
      }
    </style>
  </defs>
  <path class="st1" d="M409.65,169.64c-18.13,25.05-36.29,50.12-68.59,67.65-26.98,14.64-56.07,17.93-83.43,21.03-24.06,2.72-46.78,5.3-65.57,15.29-40.17,21.37-80.4,67.3-89.4,143.15-3.68,31.02-3,58.43,1.47,83.65,3.27,18.49,12.23,59.53,38.7,95.83,18.64,25.56,38.33,38.36,50.53,44.7,22.2-36.18,44.4-72.36,66.6-108.54,13.29-21.66,26.58-43.31,39.86-64.96h0l-106.47,173.51c63.83,26.05,143.57-23.8,178.81-61.8,20.17-21.74,32.23-46.69,43.53-70.03,14.23-29.41,27.23-56.28,53.65-70.99,14.91-8.3,31.71-9.38,48.42-10.46,23.97-1.54,47.76-3.07,65.6-25.87,30.41-38.84,41.46-89.73,41.46-132.47s-7.77-92.13-41.46-132.47c-33.69-40.33-79.04-57.69-125.68-21.37-20.24,15.76-34.12,34.94-48.02,54.13Z"/>
  <path class="st1" d="M490.33,706.83"/>
  <rect x="-197.46" y="519.8" width="6.89" height="11.02"/>
  <polygon points="-197.46 535.03 -197.46 542.24 -225.81 542.24 -225.81 549.14 -190.57 549.14 -190.57 535.03 -197.46 535.03"/>
  <rect x="-385.05" y="434.19" width="31.9" height="6.89"/>
  <path d="M-252.31,419.14h0s-15.25-25.81-15.25-25.81h-45.29l-15.25,25.81h-21.59v-12.9h-38.79v12.9h-14.13v142.45h224.83v-142.45h-74.51ZM-308.92,400.23h37.43l11.18,18.91h-59.78l11.18-18.91ZM-381.6,413.14h25v5.96h-25v-5.96ZM-184.69,554.7h-211.04v-88.44h54.41c-.24.5-.47,1.01-.69,1.52-.06.14-.12.28-.18.43-.17.4-.34.8-.5,1.21-.08.19-.15.39-.23.58-.14.37-.28.73-.41,1.1-.07.2-.14.39-.21.59-.14.41-.28.81-.41,1.22-.05.15-.1.31-.15.46-.18.56-.34,1.12-.5,1.68-.03.12-.07.25-.1.37-.12.44-.24.89-.35,1.34-.05.2-.09.4-.14.59-.09.38-.18.77-.26,1.15-.04.21-.09.41-.13.62-.08.41-.16.82-.23,1.23-.03.17-.06.35-.09.52-.1.58-.19,1.16-.27,1.74-.01.08-.02.16-.03.24-.07.51-.13,1.01-.18,1.52-.02.19-.04.39-.06.58-.04.4-.07.8-.1,1.21-.02.21-.03.42-.04.63-.03.41-.05.82-.06,1.23,0,.19-.02.37-.02.56-.02.59-.03,1.19-.03,1.78,0,31.15,25.34,56.5,56.5,56.5s56.5-25.34,56.5-56.5c0-.59-.01-1.19-.03-1.78,0-.19-.02-.37-.02-.56-.02-.41-.04-.82-.06-1.23-.01-.21-.03-.42-.04-.63-.03-.4-.06-.81-.1-1.21-.02-.19-.04-.39-.06-.58-.05-.51-.11-1.01-.18-1.51-.01-.08-.02-.17-.03-.25-.08-.58-.17-1.16-.27-1.74-.03-.17-.06-.35-.09-.52-.07-.41-.15-.82-.23-1.23-.04-.21-.09-.41-.13-.62-.08-.39-.17-.77-.26-1.15-.05-.2-.09-.4-.14-.59-.11-.45-.23-.89-.35-1.34-.03-.12-.07-.25-.1-.37-.16-.56-.33-1.12-.5-1.68-.05-.15-.1-.31-.15-.46-.13-.41-.27-.82-.41-1.22-.07-.2-.14-.39-.21-.59-.13-.37-.27-.74-.41-1.1-.07-.19-.15-.39-.23-.58-.16-.4-.33-.81-.5-1.21-.06-.14-.12-.29-.18-.43-.22-.51-.45-1.02-.69-1.52h54.41v88.44h0ZM-339.81,490.37c0-9.11,2.49-18.02,7.21-25.76,7.39-12.13,19.24-20.28,32.78-22.92,3.13-.61,6.34-.92,9.61-.92s6.49.31,9.61.92c13.55,2.63,25.39,10.79,32.78,22.92,4.72,7.74,7.21,16.65,7.21,25.76,0,27.35-22.25,49.6-49.6,49.6-24.79,0-45.38-18.27-49.03-42.06-.38-2.46-.57-4.98-.57-7.54ZM-184.69,459.36h-58.28c-.22-.34-.45-.67-.68-1.01-.08-.11-.16-.23-.24-.35-.33-.47-.66-.93-1.01-1.39-.1-.13-.2-.26-.3-.39-.25-.33-.5-.65-.75-.97-.14-.18-.28-.35-.42-.52-.22-.27-.44-.54-.67-.81-.16-.19-.32-.37-.48-.55-.22-.25-.43-.5-.65-.75-.17-.19-.34-.37-.51-.56-.22-.24-.44-.47-.66-.7-.18-.19-.36-.37-.54-.55-.22-.23-.44-.45-.67-.67-.19-.18-.37-.36-.56-.54-.23-.22-.46-.43-.69-.65-.19-.18-.38-.35-.58-.53-.23-.21-.47-.42-.71-.63-.19-.17-.39-.34-.59-.51-.24-.21-.49-.41-.73-.61-.2-.16-.4-.33-.6-.49-.25-.2-.5-.4-.76-.59-.2-.15-.4-.31-.6-.46-.26-.2-.53-.39-.8-.58-.2-.14-.4-.29-.6-.43-.28-.2-.57-.39-.86-.59-.19-.13-.38-.26-.57-.38-.32-.21-.65-.42-.97-.62-.16-.1-.32-.21-.48-.3-.49-.3-.98-.6-1.48-.88-8.51-4.89-18.23-7.47-28.1-7.47s-19.59,2.58-28.1,7.47c-.5.29-.99.58-1.48.88-.16.1-.32.2-.48.3-.33.21-.65.41-.97.62-.19.13-.38.26-.57.38-.29.19-.57.39-.86.59-.2.14-.4.29-.59.43-.27.19-.53.39-.8.58-.2.15-.4.31-.6.46-.25.2-.51.39-.76.59-.2.16-.4.32-.6.49-.25.2-.49.4-.73.61-.2.17-.39.34-.59.51-.24.21-.47.42-.71.63-.19.17-.39.35-.58.53-.23.21-.46.43-.69.65-.19.18-.37.36-.56.54-.23.22-.45.45-.67.67-.18.18-.36.37-.54.55-.22.23-.44.47-.66.7-.17.19-.34.37-.51.56-.22.25-.44.49-.65.74-.16.18-.32.37-.48.55-.23.27-.45.54-.67.81-.14.17-.29.35-.43.52-.25.32-.5.65-.75.97-.1.13-.2.26-.3.39-.34.46-.68.92-1.01,1.39-.08.11-.16.23-.24.35-.23.33-.46.67-.68,1.01h-58.28v-33.32h211.04v33.32h0Z"/>
  <path d="M-214.5,434.19v17.03h20.81v-17.03h-20.81ZM-200.59,444.32h-7.02v-3.24h7.02v3.24Z"/>
  <rect x="-372.55" y="364.35" width="6.89" height="24.37"/>
  <rect x="-349.03" y="380.71" width="24.37" height="6.89" transform="translate(-544.1 -82.84) rotate(-65.18)"/>
  <rect x="-404.8" y="371.97" width="6.89" height="24.37" transform="translate(-198.35 -133) rotate(-24.82)"/>
  <g>
    <path class="st0" d="M1017.7,615.5l-72.47-45.89c-14.65-9.28-19.07-28.79-9.87-43.58l33.3-53.56c9.2-14.79,28.53-19.27,43.18-9.99l72.47,45.89c14.65,9.28,19.07,28.79,9.87,43.58l-33.3,53.56c-9.2,14.79-28.53,19.27-43.18,9.99Z"/>
    <path class="st0" d="M928.09,517.14l29.37-44.62c2.33-3.55,7.07-4.51,10.58-2.16l92.43,61.98c3.51,2.35,4.46,7.14,2.13,10.68l-29.37,44.62c-2.33,3.55-7.07,4.51-10.58,2.16l-92.43-61.98c-3.51-2.35-4.46-7.14-2.13-10.68Z"/>
    <path class="st0" d="M1016.45,532.83l25.52-46.97c2.03-3.73,6.67-5.1,10.36-3.06l115.86,64.11c3.7,2.05,5.05,6.73,3.02,10.46l-25.52,46.97c-2.03,3.73-6.67,5.1-10.36,3.06l-115.86-64.11c-3.7-2.05-5.05-6.73-3.02-10.46Z"/>
    <path class="st0" d="M1047.8,546.21l7.26-13.85c8.63-16.48,28.85-22.78,45.17-14.07l68.94,36.78c16.32,8.7,22.54,29.11,13.91,45.59l-7.26,13.85c-8.63,16.48-28.85,22.78-45.17,14.07l-68.94-36.78c-16.32-8.7-22.54-29.11-13.91-45.59Z"/>
    <path d="M1182.33,627.05c8.79-17.03,10.49-36.49,4.78-54.79-5.71-18.31-18.14-33.27-35-42.14l-122.88-64.59c-34.81-18.3-77.89-4.59-96.04,30.56-8.79,17.03-10.49,36.49-4.78,54.79,5.71,18.31,18.13,33.27,35,42.14l122.88,64.59c16.86,8.86,36.14,10.57,54.28,4.79,18.14-5.77,32.97-18.33,41.76-35.36M967.77,584.6c-14.64-7.69-25.42-20.68-30.38-36.57s-3.48-32.78,4.15-47.56c15.75-30.51,53.15-42.41,83.36-26.53l61.44,32.3s63.63,33.79,64.41,34.34c.78.56,1.52,1.16,2.28,1.74,2.99,2.37,5.79,4.94,8.29,7.71,5.02,5.53,8.86,11.82,11.37,18.19,1.23,3.2,2.16,6.4,2.79,9.55.14.79.28,1.57.41,2.35.12.78.2,1.55.3,2.32.11.76.16,1.52.21,2.28.04.75.13,1.49.12,2.23,0,.74.01,1.47.02,2.19.01.72-.05,1.43-.07,2.13-.03,1.4-.19,2.76-.32,4.09-.06.66-.19,1.31-.28,1.95-.1.64-.18,1.27-.3,1.88-.12.61-.25,1.22-.37,1.81-.06.3-.12.59-.18.88-.07.29-.15.58-.22.86-1.14,4.56-2.51,8.37-3.74,11.45-1.58,3.94-2.51,5.95-3.43,7.45-.46.75-1.31,2.07-1.7,1.87-.33-.17.08-1.38.67-3.03.6-1.64,1.44-3.97,2.29-7.08.8-3.13,1.61-6.95,2.04-11.34.46-4.39.46-9.35-.28-14.6-.41-2.62-.93-5.32-1.77-8.02-.84-2.7-1.87-5.42-3.18-8.09-2.63-5.33-6.3-10.46-10.87-15.01-2.31-2.25-4.81-4.39-7.5-6.35-.68-.48-60.08-32.91-63.41-34.62-1.19-.61-2.22-.22-2.96,1.2-11.94,23.12-45.2,87.64-50.91,98.71-.55,1.06-1.16,1.45-2.25.89-19.26-10.06-60.03-31.56-60.03-31.56Z"/>
  </g>
  <g>
    <path class="st0" d="M601.65,495.88l-88.39,102.14c-18.85,21.78-60.42,29.17-92.84,16.51l-110.36-43.08c-32.43-12.66-43.44-40.58-24.59-62.36l88.39-102.14c18.85-21.78,60.42-29.17,92.84-16.51l110.36,43.08c32.43,12.66,43.44,40.58,24.59,62.36Z"/>
    <path class="st0" d="M403.76,625.74l-94.14-38.99c-7.78-3.22-10.2-10.07-5.4-15.3l122.02-132.9c4.8-5.23,15-6.85,22.78-3.63l94.14,38.99c7.78,3.22,10.2,10.07,5.4,15.3l-122.02,132.9c-4.8,5.23-15,6.85-22.78,3.63Z"/>
    <path class="st0" d="M430.18,500.27l-98.72-33.49c-8.16-2.77-11.43-9.45-7.31-14.94l124.87-166.06c4.12-5.48,14.08-7.68,22.24-4.91l98.72,33.49c8.16,2.77,11.43,9.45,7.31,14.94l-124.87,166.06c-4.12,5.48-14.08,7.68-22.24,4.91Z"/>
    <path class="st0" d="M454.31,454.87l-25.44-8.3c-36-11.75-51-40.88-33.5-65.05l69.81-96.47c17.5-24.18,60.86-34.25,96.86-22.5l25.44,8.3c36,11.75,51,40.88,33.5,65.05l-69.81,96.47c-17.5,24.18-60.86,34.25-96.86,22.5Z"/>
    <path d="M615.1,261.7c-36.08-11.6-76.72-13.06-114.43-4.13-37.72,8.93-68,27.2-85.27,51.43l-125.83,176.58c-35.64,50.02-4.05,110.19,70.42,134.13,36.08,11.6,76.72,13.06,114.43,4.13,37.72-8.93,68-27.2,85.27-51.43l125.83-176.58c17.27-24.23,19.45-51.53,6.15-76.86-13.3-25.33-40.49-45.67-76.57-57.27M541.86,566.67c-14.99,21.03-41.27,36.89-74.01,44.64-32.74,7.75-68.02,6.48-99.33-3.59-64.64-20.78-92.06-73-61.13-116.42l62.91-88.29s65.86-91.45,66.95-92.59c1.11-1.12,2.32-2.21,3.46-3.3,4.73-4.34,9.87-8.41,15.47-12.07,11.16-7.35,23.98-13.07,37.07-16.93,6.58-1.88,13.18-3.35,19.69-4.39,1.63-.23,3.25-.46,4.86-.69,1.61-.2,3.22-.35,4.8-.53,1.58-.19,3.16-.3,4.72-.4,1.56-.1,3.1-.25,4.64-.27,1.53-.05,3.05-.09,4.55-.13,1.5-.05,2.98,0,4.44,0,2.92-.02,5.77.14,8.53.26,1.38.05,2.74.2,4.08.3,1.33.12,2.65.19,3.94.34,1.29.15,2.55.29,3.8.43.62.07,1.24.15,1.85.22.61.09,1.21.18,1.81.27,9.57,1.39,17.61,3.14,24.1,4.73,8.32,2.04,12.57,3.27,15.76,4.48,1.6.61,4.4,1.75,4.01,2.31-.33.47-2.88-.04-6.35-.8-3.45-.77-8.37-1.84-14.9-2.9-6.57-.98-14.58-1.94-23.76-2.34-9.16-.44-19.51-.2-30.39,1.09-5.42.71-11.01,1.56-16.57,2.89-5.56,1.31-11.15,2.9-16.62,4.88-10.92,3.97-21.34,9.39-30.48,16.07-4.52,3.37-8.8,7-12.68,10.9-.94.99-64.29,86.4-67.6,91.18-1.18,1.7-.31,3.15,2.71,4.12,48.99,15.75,185.68,59.62,209.13,67.15,2.24.72,3.11,1.57,2.01,3.13-19.58,27.68-61.47,86.27-61.47,86.27Z"/>
  </g>
</svg>